# xmcd
# 
# Track frame offsets:
#     150
#     18009
#     31739
#     48739
#     63534
#     84898
#     111570
#     124085
#     138550
#     160138
#     181030
#     204591
# 
# Disc length: 2959
# 
# Revision: 0
# Processed by: cddbd v1.5.2PL0 Copyright (c) Steve Scherf et al.
# Submitted via: fre:ac v1.0.31
# 
DISCID=9c0b8d0c
DTITLE=Pentangle - Solomon's Seal
DYEAR=0
DGENRE=Folk
TTITLE0=Sally Free And Easy
TTITLE1=The Cherry Tree Carol
TTITLE2=The Snows
TTITLE3=High Germany
TTITLE4=People On The Highway
TTITLE5=Willy O'Winsbury
TTITLE6=No Love Is Sorrow
TTITLE7=Jump, Baby, Jump
TTITLE8=Lady Of Carlisle
TTITLE9=When I Get Home (Live)
TTITLE10=She Moved Through The Fair (Live)
TTITLE11=Train Song (Live)
EXTD=
EXTT0=
EXTT1=
EXTT2=
EXTT3=
EXTT4=
EXTT5=
EXTT6=
EXTT7=
EXTT8=
EXTT9=
EXTT10=
EXTT11=
PLAYORDER=
